<?xml version="1.0" encoding="UTF-8"?>
<svg id="Capa_10" data-name="Capa 10" xmlns="http://www.w3.org/2000/svg" viewBox="0 0 2160 2160">
  <defs>
    <style>
      .cls-1 {
        fill: #084482;
      }

      .cls-2 {
        fill: #5b5b5b;
      }

      .cls-3 {
        fill: #25a137;
      }
    </style>
  </defs>
  <g id="Capa_11" data-name="Capa 11">
    <path class="cls-3" d="m610.23,1033.99c225.01,232.14,321.49,332.04,331.49,342.95.26.28,1.16,1.27,2.46,2.5,17.54,16.63,42.54,15.94,45.39,15.82,0,0,20.34-.85,40.43-16.62,85.81-67.34,383.41-479.14,383.41-479.14,127.62-162.76,216.75-285.21,228.22-312.61,9.21-21.99,3.5-38.32,3.5-38.32-4.17-11.94-13.12-18.69-15.65-20.49-13.05-9.27-27.54-8.14-31.97-7.73-23.69,2.19-40.16,20.85-45.82,27.22-27.57,30.97-118.88,129.7-242.49,265.64-110.34,120.26-220.67,240.52-331.01,360.77-86.61-75.67-173.23-151.34-259.84-227-8.6-9.44-22.49-21.61-42.43-29.01-10.69-3.96-23.38-8.67-39.56-5.51-19.95,3.89-31.79,17.12-35.24,21.1-1.96,2.25-13.15,15.48-15.82,35.48-4.74,35.53,21.53,61.68,24.93,64.97Z"/>
    <path class="cls-1" d="m1459.99,130.04h-778.26c-145.72,0-264.27,118.55-264.27,264.27v756.7c0,145.72,118.55,264.27,264.27,264.27h212.62c-8.27-8.75-33.46-34.97-93.68-97.26h-118.94c-92.09,0-167.01-74.92-167.01-167.01V394.31c0-92.09,74.92-167.01,167.01-167.01h778.26c92.09,0,167.01,74.92,167.01,167.01v67.55c16.23,3.59,28.81,10.37,37.67,16.66,10.11,7.18,28.5,23.24,37.85,50.02h-.03c2.95,8.28,4.65,17.81,5.08,28.51.71,17.75-2.7,36.19-9.87,53.32-3.3,7.88-10.87,25.95-70.7,108.52v432.13c0,92.09-74.92,167.01-167.01,167.01h-290.33c-48.11,57.66-74.15,83.99-88.82,97.26h379.16c145.72,0,264.27-118.55,264.27-264.27V394.31c0-145.72-118.55-264.27-264.27-264.27Z"/>
    <ellipse class="cls-1" cx="1215.98" cy="350.5" rx="81.71" ry="85.55"/>
    <path class="cls-1" d="m676.08,838.81c1.73.23,3.25.15,4.44,0,58.36,0,116.71,0,175.07,0,27.1-33.73,54.19-67.46,81.29-101.19l-65.2-53.77-52.5,75.15h-137.43c-1.49-.21-3.44-.33-5.67,0-13.9,2.08-25.23,19.85-26.46,36.2-1.51,20.08,11.94,41.66,26.46,43.61Z"/>
    <path class="cls-1" d="m1018.17,459.88h-72.96c-24.24,26.24-48.47,52.47-72.71,78.71-.77,1.05-1.87,2.35-3.36,3.64-10.81,9.35-32.75,9.88-46.36-2.12-16.59-14.62-14.24-42.02-3.39-53.77,1.22-1.32,2.44-2.64,3.65-3.96,33.01-35.73,66.01-71.45,99.02-107.18,106.62-.81,151.72-1.08,155.86-1,.13,0,.77-.01,1.64-.01,4.77.02,7.74.03,11.17.9,3.69.93,6.56,2.52,8.52,3.6,1.25.69,2.16,1.27,2.45,1.45,21.17,13.51,25.58,14.92,32.69,20.88,5.88,4.93,23.41,20.4,37.23,46.59.95,1.81,1.71,3.32,2.21,4.35,14.11,24.09,28.23,48.17,42.34,72.26h117.33c1.01.15,2.36.41,3.9.9,13.83,4.45,23.29,21.66,24.13,37.35.98,18.34-9.65,37.79-24.24,42.73-1.35.46-2.54.72-3.42.88h-150.44c-15.05-22.2-30.11-44.41-45.16-66.61l-81.85,97.66c50.75,54.17,87.38,94.12,91.73,100.06,2.34,3.19,3.92,6.6,3.92,6.6,2.07,4.47,2.76,8.29,3.33,11.55.52,2.95,1.23,7.25.85,12.91-.18,2.59-.48,6.57-2.25,11.4-1.21,3.3-2.69,5.86-3.87,7.63-8.85,12.02-114.89,155.95-133.16,177.9-.73.87-3.16,3.74-7.26,5.98-13.43,7.35-35.37,2.86-47.98-11.15-10.83-12.03-15.41-31.8-8.04-42.9.51-.77,1-1.38,1.36-1.8,32.29-42.68,64.57-85.36,96.86-128.03-72.37-62.37-124.38-109.92-139.36-125.89-3.73-3.97-10.71-11.89-12.49-23.43-1.81-11.72,1.81-21.93,4.69-25.8,37.81-50.77,75.62-101.53,113.43-152.3Z"/>
    <g>
      <path class="cls-1" d="m560.63,1610.59v39.44h63.88c-6.11,13-14.14,22.55-24.1,28.64-9.96,6.1-22.19,9.15-36.71,9.15-22.32,0-41.08-7.4-56.3-22.19-15.21-14.8-22.82-32.84-22.82-54.14s7.33-38.09,21.99-52.49,32.84-21.59,54.56-21.59c6.01,0,15.05.03,25.65,3.83,16.7,5.98,26.88,17.55,31.72,24.06h47.05c-3.98-10.35-17.56-41.62-50.8-58.33-21.55-10.83-41.75-10.65-53.84-10.65-36.69,0-66.48,12.85-89.38,38.54-19.3,21.59-28.94,46.99-28.94,76.18,0,21.29,5.22,41.14,15.67,59.54,10.45,18.4,24.64,32.57,42.59,42.51,17.94,9.95,38.36,14.92,61.26,14.92,21.39,0,40.04-4.55,55.94-13.65,15.9-9.1,28.84-22.29,38.84-39.59,10-17.3,15-35.59,15-54.89l-.3-9.3h-110.97Z"/>
      <path class="cls-1" d="m770.63,1566.21c-24.2,0-44.31,8.22-60.36,24.67-16.05,16.45-24.07,37.12-24.07,62.01s8.05,44.52,24.14,60.66c16.09,16.15,36.94,24.22,62.53,24.22,16.5,0,30.74-2.92,42.74-8.77,12-5.85,22.29-14.87,30.89-27.07l-34.49-16.2c-11,10.7-24.14,16.05-39.44,16.05-12.8,0-23.32-3.42-31.57-10.27-8.25-6.85-13.32-16.07-15.22-27.67h131.52l.15-7.8c0-26.99-8.05-48.71-24.14-65.16-16.1-16.44-36.99-24.67-62.68-24.67Zm-43.04,65.38c4.61-10.1,9.61-17.15,15.02-21.14,8.61-6.4,18.63-9.6,30.04-9.6,10.52,0,19.75,2.85,27.72,8.55,7.96,5.7,13.29,13.1,16,22.19h-88.78Z"/>
      <path class="cls-1" d="m994.93,1600.69l-22.89-11.44c-9.92-4.88-16.14-8.73-18.65-11.56-2.52-2.82-3.78-5.91-3.78-9.27,0-4.42,1.98-8.13,5.95-11.1,3.97-2.98,9.46-4.46,16.48-4.46,12.82,0,27.08,7.78,42.8,23.35l38.68-38.68c-9.92-13.28-22.01-23.46-36.28-30.56-14.27-7.1-29.49-10.64-45.66-10.64-23.65,0-43.07,6.98-58.25,20.94-15.19,13.96-22.77,30.79-22.77,50.47,0,30.52,20.14,55.93,60.43,76.22l21.06,10.53c18.16,9.16,27.24,18.54,27.24,28.15,0,5.19-2.52,9.77-7.55,13.73-5.04,3.97-11.67,5.95-19.91,5.95-7.63,0-16.37-2.63-26.21-7.9s-18.43-12.17-25.75-20.71l-38.45,41.89c21.67,28.38,50.66,42.57,86.98,42.57,27.31,0,49.1-7.4,65.35-22.2,16.25-14.8,24.38-33.26,24.38-55.39,0-16.63-4.5-31.13-13.5-43.49-9.01-12.36-25.56-24.49-49.67-36.39Z"/>
      <path class="cls-1" d="m1191.45,1560.33c-9.8,0-19,1.85-27.59,5.55-8.6,3.7-16.6,9.25-23.99,16.65v-18h-40.64v222.84h40.64v-76.93c8,7.6,16.05,13.07,24.14,16.42s16.84,5.02,26.24,5.02c21.09,0,39.34-8.17,54.74-24.52,15.39-16.35,23.09-36.67,23.09-60.96s-7.45-45.84-22.34-61.93c-14.9-16.1-32.99-24.14-54.29-24.14Zm23.02,120.42c-8.55,9.1-19.07,13.65-31.57,13.65s-23.6-4.47-32.09-13.42c-8.5-8.95-12.75-20.67-12.75-35.17s4.25-25.69,12.75-34.49c8.5-8.8,19.2-13.2,32.09-13.2s23.39,4.48,31.79,13.42c8.4,8.95,12.6,20.42,12.6,34.42s-4.27,25.69-12.82,34.79Z"/>
      <path class="cls-1" d="m1434.86,1575.66c-13.55-7.7-28.02-11.55-43.41-11.55-21.29,0-40.14,7.4-56.54,22.19-18.7,17-28.04,38.24-28.04,63.73,0,23.79,8.27,44.01,24.82,60.66,16.54,16.65,36.52,24.97,59.91,24.97,15.9,0,30.44-3.77,43.64-11.32s23.62-18.02,31.27-31.42c7.65-13.4,11.47-27.79,11.47-43.19s-3.8-29.54-11.4-42.74c-7.6-13.2-18.17-23.64-31.72-31.34Zm-10.89,108.57c-8.51,8.9-19.18,13.35-32,13.35s-23.41-4.4-31.77-13.2c-8.36-8.8-12.54-20.29-12.54-34.49s4.23-25.12,12.69-33.97c8.46-8.85,19.05-13.27,31.77-13.27s23.71,4.37,32.07,13.12c8.36,8.75,12.54,20.12,12.54,34.12s-4.26,25.44-12.77,34.34Z"/>
      <path class="cls-1" d="m1575.25,1572.51c-6.3,4.2-11.35,10.35-15.15,18.45v-20.54h-35.09v163.16h40.64v-65.98c.03-7.7.07-15.39.1-23.09.67-4.23,2.53-12.03,8.34-19.74,2.16-2.86,8.28-10.74,19.6-14.59,7.68-2.61,14.4-2.23,18.08-1.74.27-12.67.54-25.34.81-38.02-5.8-2.8-11.35-4.2-16.65-4.2-7.5,0-14.4,2.1-20.69,6.3Z"/>
      <path class="cls-1" d="m1703.07,1690.68c-1.53-1.63-2.01-3.43-2.17-4.25.14-28.89.28-57.77.41-86.66h24.29v-35.24h-24.29v-60.13h-40.94c.12,22.78.12,45.75,0,68.91-.19,35.88-1.73,62.22-1.49,109.04.04,7.14.1,13.01.14,16.91-.02.47-.04,1.22.02,2.12.89,14.63,17.45,23.65,18.46,24.18,2.79,1.47,7.54,3.52,14.08,4.2l15.81,1.5c7.46-.16,14.92-.31,22.38-.47v-37.41c-7.05,0-14.1,0-21.16,0-.73-.07-3.42-.42-5.55-2.7Z"/>
    </g>
    <g>
      <path class="cls-2" d="m429.82,1871.62c0-25.68,16.27-40.95,37.16-40.95,11.14,0,18.77,4.9,23.71,9.94l-7.44,8.98c-3.94-3.84-8.54-6.82-15.84-6.82-13.92,0-23.28,10.8-23.28,28.42s8.3,28.75,24.05,28.75c4.37,0,8.69-1.25,11.19-3.46v-16.95h-14.79v-11.43h27.27v34.61c-5.23,5.28-14.31,9.31-25.06,9.31-21.17,0-36.96-14.45-36.96-40.42Z"/>
      <path class="cls-2" d="m524.78,1830.68h47.24v11.71h-33.32v20.11h28.23v11.71h-28.23v23.23h34.52v11.71h-48.44v-78.49Z"/>
      <path class="cls-2" d="m591.17,1899.11l8.11-9.55c5.62,5.35,13.15,8.95,20.45,8.95,8.83,0,13.68-4.01,13.68-10.13,0-6.46-5.06-8.52-12.19-11.55l-10.73-4.66c-7.73-3.22-15.87-9.34-15.87-20.81,0-12.51,11.04-22.13,26.35-22.13,9.17,0,18.05,3.79,24.19,10.01l-7.15,8.83c-4.99-4.25-10.32-6.74-17.04-6.74-7.44,0-12.29,3.48-12.29,9.22,0,6.17,5.98,8.45,12.48,11.11l10.58,4.44c9.34,3.89,15.87,9.79,15.87,21.17,0,12.72-10.56,23.33-28.18,23.33-10.61,0-20.84-4.18-28.27-11.5Z"/>
      <path class="cls-2" d="m685.07,1842.39h-22.66v-11.71h59.24v11.71h-22.66v66.77h-13.92v-66.77Z"/>
      <path class="cls-2" d="m740.33,1830.68h13.92v78.49h-13.92v-78.49Z"/>
      <path class="cls-2" d="m781.08,1871.05c0-25.39,14.16-40.37,34.61-40.37s34.61,15.05,34.61,40.37-14.16,41-34.61,41-34.61-15.6-34.61-41Zm54.92,0c0-17.62-7.97-28.27-20.31-28.27s-20.31,10.66-20.31,28.27,7.97,28.9,20.31,28.9,20.31-11.28,20.31-28.9Zm-28.08-50.02l18.77-16.13,7.54,9.07-20.16,14.02-6.15-6.96Z"/>
      <path class="cls-2" d="m881.39,1830.68h14.31l24.39,44.12,8.11,16.75h.48c-.67-8.11-1.78-18.05-1.78-26.79v-34.08h13.25v78.49h-14.31l-24.39-44.19-8.11-16.68h-.48c.67,8.3,1.78,17.76,1.78,26.5v34.37h-13.25v-78.49Z"/>
      <path class="cls-2" d="m1011.89,1829.05h20.93c24.05,0,38.26,12.96,38.26,38.93s-14.21,39.56-37.54,39.56h-21.65v-78.49Zm20.02,67.21c15.79,0,24.87-8.98,24.87-28.27s-9.07-27.65-24.87-27.65h-6.1v55.93h6.1Z"/>
      <path class="cls-2" d="m1096.14,1829.05h47.24v11.71h-33.31v20.11h28.23v11.71h-28.23v23.23h34.52v11.71h-48.44v-78.49Z"/>
      <path class="cls-2" d="m1208.87,1829.05h47.24v11.71h-33.31v20.11h28.23v11.71h-28.23v23.23h34.52v11.71h-48.44v-78.49Z"/>
      <path class="cls-2" d="m1271.91,1830.68h14.74l11.04,39.46c2.54,8.9,4.27,16.61,6.91,25.54h.48c2.64-8.93,4.44-16.63,6.91-25.54l10.9-39.46h14.21l-24.29,78.49h-16.51l-24.39-78.49Z"/>
      <path class="cls-2" d="m1360.6,1830.68h47.24v11.71h-33.31v20.11h28.23v11.71h-28.23v23.23h34.52v11.71h-48.44v-78.49Z"/>
      <path class="cls-2" d="m1437.95,1830.68h14.31l24.39,44.12,8.11,16.75h.48c-.67-8.11-1.78-18.05-1.78-26.79v-34.08h13.25v78.49h-14.31l-24.39-44.19-8.11-16.68h-.48c.67,8.3,1.78,17.76,1.78,26.5v34.37h-13.25v-78.49Z"/>
      <path class="cls-2" d="m1540.89,1842.39h-22.66v-11.71h59.24v11.71h-22.66v66.77h-13.92v-66.77Z"/>
      <path class="cls-2" d="m1597.27,1869.61c0-25.39,14.16-40.37,34.61-40.37s34.61,15.05,34.61,40.37-14.16,41-34.61,41-34.61-15.6-34.61-41Zm54.92,0c0-17.62-7.97-28.27-20.31-28.27s-20.31,10.66-20.31,28.27,7.97,28.9,20.31,28.9,20.31-11.28,20.31-28.9Z"/>
      <path class="cls-2" d="m1686.09,1899.11l8.11-9.55c5.62,5.35,13.15,8.95,20.45,8.95,8.83,0,13.68-4.01,13.68-10.13,0-6.46-5.06-8.52-12.19-11.55l-10.73-4.66c-7.73-3.22-15.87-9.34-15.87-20.81,0-12.51,11.04-22.13,26.35-22.13,9.17,0,18.05,3.79,24.19,10.01l-7.15,8.83c-4.99-4.25-10.32-6.74-17.04-6.74-7.44,0-12.29,3.48-12.29,9.22,0,6.17,5.98,8.45,12.48,11.11l10.58,4.44c9.34,3.89,15.87,9.79,15.87,21.17,0,12.72-10.56,23.33-28.18,23.33-10.61,0-20.84-4.18-28.27-11.5Z"/>
      <path class="cls-2" d="m435.59,1950.03h20.93c24.05,0,38.26,12.96,38.26,38.93s-14.21,39.56-37.54,39.56h-21.65v-78.49Zm20.02,67.21c15.79,0,24.87-8.98,24.87-28.27s-9.07-27.65-24.87-27.65h-6.1v55.92h6.1Z"/>
      <path class="cls-2" d="m519.78,1950.03h47.24v11.71h-33.32v20.11h28.23v11.71h-28.23v23.23h34.52v11.71h-48.44v-78.49Z"/>
      <path class="cls-2" d="m588.81,1950.03h24.72c17.43,0,30.34,6.05,30.34,24.19s-12.96,25.44-29.86,25.44h-11.28v28.85h-13.92v-78.49Zm24.05,38.5c11.71,0,17.28-4.66,17.28-14.31s-6.1-13.06-17.76-13.06h-9.65v27.36h10.13Z"/>
      <path class="cls-2" d="m667.67,1988.96c0-25.39,14.16-40.37,34.61-40.37s34.61,15.05,34.61,40.37-14.16,41-34.61,41-34.61-15.6-34.61-41Zm54.92,0c0-17.62-7.97-28.27-20.31-28.27s-20.31,10.66-20.31,28.27,7.97,28.9,20.31,28.9,20.31-11.28,20.31-28.9Z"/>
      <path class="cls-2" d="m765.79,1950.03h26.45c16.32,0,28.9,5.76,28.9,23.28s-12.58,24.53-28.9,24.53h-12.53v30.67h-13.92v-78.49Zm25.01,36.68c10.75,0,16.61-4.46,16.61-13.39s-5.86-12.14-16.61-12.14h-11.09v25.54h11.09Zm-1.18,7.42l10.08-8.3,24.51,42.7h-15.65l-18.94-34.4Z"/>
      <path class="cls-2" d="m856.88,1961.74h-22.66v-11.71h59.24v11.71h-22.66v66.78h-13.92v-66.78Z"/>
      <path class="cls-2" d="m912.65,1950.03h13.92v78.49h-13.92v-78.49Z"/>
      <path class="cls-2" d="m948.93,1950.03h14.74l11.04,39.46c2.54,8.9,4.27,16.61,6.91,25.54h.48c2.64-8.93,4.44-16.63,6.91-25.54l10.9-39.46h14.21l-24.29,78.49h-16.51l-24.39-78.49Z"/>
      <path class="cls-2" d="m1033.46,1988.96c0-25.39,14.16-40.37,34.61-40.37s34.61,15.05,34.61,40.37-14.16,41-34.61,41-34.61-15.6-34.61-41Zm54.92,0c0-17.62-7.97-28.27-20.31-28.27s-20.31,10.66-20.31,28.27,7.97,28.9,20.31,28.9,20.31-11.28,20.31-28.9Z"/>
      <path class="cls-2" d="m1122.74,2018.46l8.11-9.55c5.62,5.35,13.15,8.95,20.45,8.95,8.83,0,13.68-4.01,13.68-10.13,0-6.46-5.06-8.52-12.19-11.55l-10.73-4.66c-7.73-3.22-15.87-9.34-15.87-20.81,0-12.51,11.04-22.13,26.35-22.13,9.17,0,18.05,3.79,24.19,10.01l-7.15,8.83c-4.99-4.25-10.32-6.75-17.04-6.75-7.44,0-12.29,3.48-12.29,9.22,0,6.17,5.98,8.45,12.48,11.11l10.58,4.44c9.34,3.89,15.87,9.79,15.87,21.17,0,12.72-10.56,23.33-28.18,23.33-10.61,0-20.84-4.18-28.27-11.5Z"/>
    </g>
  </g>
</svg>