<?xml version="1.0" encoding="UTF-8"?>
<svg id="FORMA" xmlns="http://www.w3.org/2000/svg" viewBox="0 0 2160 2160">
  <defs>
    <style>
      .cls-1 {
        fill: #084482;
      }

      .cls-2 {
        fill: #5b5b5b;
      }

      .cls-3 {
        fill: #25a137;
      }
    </style>
  </defs>
  <g id="persona">
    <g id="Capa_7" data-name="Capa 7">
      <g>
        <path class="cls-1" d="m1703.49,159.32H456.51c-182.75,0-330.89,148.15-330.89,330.89v1179.57c0,182.75,148.15,330.89,330.89,330.89h1246.98c182.75,0,330.89-148.15,330.89-330.89V490.21c0-182.75-148.15-330.89-330.89-330.89Zm224.68,1213.02c0,124.79-101.16,225.96-225.96,225.96H462.89c-124.79,0-225.96-101.16-225.96-225.96v-819.83c0-148.91,120.71-269.62,269.62-269.62h1152c148.91,0,269.62,120.71,269.62,269.62v819.83Z"/>
        <path class="cls-1" d="m887.62,961.4v202.09c0,53.99-43.92,97.92-97.92,97.92h-134.85c-12.02,13.35-22.41,23.81-30.17,29.9-16.94,13.29-34.33,14.66-37.64,14.8-.59.02-1.33.04-2.18.04-8.11,0-27.21-1.7-42.43-16.13-.95-.9-1.87-1.84-2.73-2.78-1.54-1.68-8.09-8.54-24.77-25.83h-77.57c-53.99,0-97.92-43.92-97.92-97.92v-465.7c0-53.99,43.92-97.91,97.92-97.91h352.34c53.99,0,97.92,43.92,97.92,97.91v92.03c6.22-3.02,12.71-4.86,19.42-5.48,16.75-1.54,28.72,4.13,35.81,9.17,1.35.96,3,2.25,4.77,3.86v-99.58c0-87.07-70.84-157.91-157.92-157.91h-352.34c-87.07,0-157.92,70.84-157.92,157.91v465.7c0,87.07,70.84,157.92,157.92,157.92h352.34c87.07,0,157.92-70.84,157.92-157.92v-285.31c-13.75,21.22-36.99,52.83-60,83.23Z"/>
        <path class="cls-3" d="m383.87,1085.74c119.82,123.62,171.2,176.82,176.52,182.63.14.15.62.68,1.31,1.33,9.34,8.86,22.65,8.49,24.17,8.43,0,0,10.83-.45,21.53-8.85,45.69-35.86,204.17-255.15,204.17-255.15,67.96-86.67,115.42-151.88,121.53-166.47,4.9-11.71,1.87-20.41,1.87-20.41-2.22-6.36-6.99-9.95-8.33-10.91-6.95-4.93-14.67-4.34-17.02-4.12-12.62,1.17-21.39,11.1-24.4,14.49-14.68,16.49-63.31,69.07-129.13,141.45-58.76,64.04-117.51,128.08-176.27,192.12-46.12-40.29-92.25-80.59-138.37-120.88-4.58-5.02-11.97-11.51-22.6-15.45-5.69-2.11-12.45-4.62-21.06-2.94-10.63,2.07-16.93,9.12-18.77,11.23-1.04,1.2-7,8.25-8.43,18.89-2.53,18.92,11.46,32.85,13.28,34.6Z"/>
        <ellipse class="cls-1" cx="728.68" cy="676.94" rx="49.28" ry="51.59"/>
        <path class="cls-1" d="m407.23,983.23c1.04.14,1.96.09,2.68,0,35.19,0,70.38,0,105.58,0,16.34-20.34,32.68-40.68,49.02-61.02l-39.32-32.43-31.66,45.32h-82.88c-.9-.13-2.08-.2-3.42,0-8.38,1.26-15.22,11.97-15.96,21.83-.91,12.11,7.2,25.13,15.96,26.3Z"/>
        <path class="cls-1" d="m613.53,754.72h-44c-14.62,15.82-29.23,31.64-43.85,47.47-.47.63-1.13,1.42-2.03,2.19-6.52,5.64-19.75,5.96-27.96-1.28-10-8.82-8.59-25.34-2.04-32.43.73-.8,1.47-1.59,2.2-2.39,19.9-21.55,39.81-43.09,59.71-64.64,64.3-.49,91.49-.65,93.99-.6.08,0,.47,0,.99,0,2.88.01,4.67.02,6.73.54,2.22.56,3.96,1.52,5.14,2.17.75.42,1.3.77,1.48.88,12.77,8.15,15.42,9,19.72,12.59,3.55,2.97,14.11,12.3,22.45,28.1.58,1.09,1.03,2,1.33,2.63,8.51,14.52,17.02,29.05,25.53,43.57h70.75c.61.09,1.43.24,2.35.54,8.34,2.68,14.05,13.06,14.55,22.52.59,11.06-5.82,22.79-14.62,25.77-.82.28-1.53.44-2.06.53h-90.72c-9.08-13.39-18.16-26.78-27.23-40.17l-49.36,58.89c30.6,32.67,52.7,56.76,55.32,60.34,1.41,1.93,2.36,3.98,2.36,3.98,1.25,2.7,1.67,5,2.01,6.97.31,1.78.74,4.37.51,7.79-.11,1.56-.29,3.96-1.36,6.88-.73,1.99-1.62,3.53-2.33,4.6-5.34,7.25-69.29,94.05-80.3,107.29-.44.53-1.9,2.26-4.38,3.61-8.1,4.43-21.33,1.73-28.94-6.72-6.53-7.25-9.29-19.17-4.85-25.87.31-.46.6-.83.82-1.09,19.47-25.74,38.94-51.47,58.41-77.21-43.64-37.61-75.01-66.29-84.04-75.91-2.25-2.39-6.46-7.17-7.53-14.13-1.09-7.06,1.09-13.23,2.83-15.56,22.8-30.61,45.6-61.23,68.41-91.84Z"/>
        <g>
          <path class="cls-1" d="m1096.3,823.82v30.82h49.92c-4.77,10.16-11.05,17.62-18.83,22.38-7.78,4.77-17.34,7.15-28.68,7.15-17.44,0-32.11-5.78-43.99-17.34-11.89-11.56-17.83-25.66-17.83-42.3s5.73-29.77,17.18-41.02,25.67-16.88,42.64-16.88c4.69,0,11.76.02,20.04,2.99,13.05,4.68,21.01,13.71,24.79,18.8h36.77c-3.11-8.09-13.72-32.53-39.7-45.58-16.84-8.46-32.63-8.32-42.07-8.32-28.67,0-51.95,10.04-69.84,30.12-15.08,16.88-22.62,36.72-22.62,59.53,0,16.64,4.08,32.15,12.25,46.52,8.16,14.38,19.26,25.45,33.28,33.22,14.02,7.77,29.98,11.66,47.87,11.66,16.72,0,31.29-3.56,43.71-10.66s22.54-17.42,30.35-30.94c7.81-13.52,11.72-27.81,11.72-42.89l-.23-7.27h-86.72Z"/>
          <path class="cls-1" d="m1260.41,789.14c-18.91,0-34.63,6.43-47.17,19.28-12.54,12.85-18.81,29-18.81,48.46s6.29,34.79,18.87,47.4c12.58,12.62,28.87,18.93,48.87,18.93,12.89,0,24.02-2.29,33.4-6.86s17.42-11.62,24.14-21.15l-26.95-12.66c-8.59,8.36-18.87,12.54-30.82,12.54-10,0-18.22-2.68-24.67-8.03-6.45-5.35-10.41-12.56-11.89-21.62h102.77l.12-6.09c0-21.09-6.29-38.07-18.87-50.92-12.58-12.85-28.91-19.28-48.98-19.28Zm-33.63,51.09c3.6-7.89,7.51-13.4,11.74-16.52,6.73-5,14.55-7.5,23.48-7.5,8.22,0,15.44,2.23,21.66,6.68,6.22,4.45,10.39,10.24,12.5,17.34h-69.38Z"/>
          <path class="cls-1" d="m1399.28,841.11l-11.72-5.86c-5.08-2.5-8.26-4.47-9.55-5.92-1.29-1.44-1.93-3.03-1.93-4.75,0-2.27,1.01-4.16,3.05-5.68,2.03-1.52,4.84-2.29,8.44-2.29,6.56,0,13.87,3.98,21.91,11.95l19.8-19.8c-5.08-6.8-11.27-12.01-18.57-15.64-7.31-3.63-15.1-5.45-23.38-5.45-12.11,0-22.05,3.57-29.82,10.72-7.77,7.15-11.66,15.76-11.66,25.84,0,15.63,10.31,28.63,30.94,39.02l10.78,5.39c9.3,4.69,13.95,9.49,13.95,14.41,0,2.66-1.29,5-3.87,7.03-2.58,2.03-5.98,3.05-10.2,3.05-3.91,0-8.38-1.35-13.42-4.04s-9.43-6.23-13.18-10.61l-19.69,21.45c11.09,14.53,25.94,21.8,44.53,21.8,13.98,0,25.14-3.79,33.46-11.37,8.32-7.58,12.48-17.03,12.48-28.36,0-8.51-2.31-15.94-6.91-22.27-4.61-6.33-13.09-12.54-25.43-18.63Z"/>
          <path class="cls-1" d="m1524.03,784.54c-7.66,0-14.84,1.45-21.56,4.34-6.72,2.89-12.97,7.23-18.75,13.01v-14.06h-31.76v174.14h31.76v-60.12c6.25,5.94,12.54,10.22,18.87,12.83s13.16,3.93,20.51,3.93c16.48,0,30.74-6.39,42.77-19.16,12.03-12.77,18.05-28.65,18.05-47.64s-5.82-35.82-17.46-48.4c-11.64-12.58-25.78-18.87-42.42-18.87Zm17.99,94.1c-6.68,7.11-14.9,10.66-24.67,10.66s-18.44-3.5-25.08-10.49c-6.64-6.99-9.96-16.15-9.96-27.48s3.32-20.08,9.96-26.95c6.64-6.87,15-10.31,25.08-10.31s18.28,3.5,24.84,10.49c6.56,6.99,9.84,15.96,9.84,26.89s-3.34,20.08-10.02,27.19Z"/>
          <path class="cls-1" d="m1689.15,796.52c-10.59-6.02-21.9-9.02-33.93-9.02-16.64,0-31.37,5.78-44.18,17.34-14.61,13.28-21.91,29.88-21.91,49.8,0,18.59,6.46,34.39,19.39,47.4,12.93,13.01,28.54,19.51,46.82,19.51,12.42,0,23.79-2.95,34.1-8.85s18.46-14.08,24.43-24.55c5.98-10.47,8.96-21.72,8.96-33.75s-2.97-23.09-8.91-33.4c-5.94-10.31-14.2-18.48-24.79-24.49Zm-8.51,84.84c-6.65,6.95-14.99,10.43-25,10.43s-18.29-3.44-24.83-10.31c-6.54-6.87-9.8-15.86-9.8-26.95s3.3-19.63,9.92-26.54c6.61-6.91,14.89-10.37,24.83-10.37s18.53,3.42,25.06,10.25c6.53,6.84,9.8,15.72,9.8,26.66s-3.33,19.88-9.98,26.84Z"/>
          <path class="cls-1" d="m1778.94,794.06c-4.92,3.28-8.87,8.09-11.84,14.41v-16.05h-27.42v127.5h31.76v-51.56c.03-6.01.05-12.03.08-18.04.53-3.31,1.97-9.4,6.52-15.42,1.69-2.24,6.47-8.4,15.32-11.4,6-2.04,11.25-1.74,14.13-1.36.21-9.9.42-19.8.63-29.71-4.53-2.19-8.87-3.28-13.01-3.28-5.86,0-11.25,1.64-16.17,4.92Z"/>
          <path class="cls-1" d="m1857.89,886.4c-1.2-1.27-1.57-2.68-1.7-3.32.11-22.57.22-45.15.32-67.72h18.98v-27.54h-18.98v-46.99h-31.99c.09,17.8.1,35.75,0,53.85-.15,28.04-1.35,48.62-1.17,85.21.03,5.58.08,10.17.11,13.21-.02.37-.03.95.01,1.66.7,11.43,13.64,18.48,14.43,18.89,2.18,1.15,5.89,2.75,11.01,3.28l12.35,1.17c5.83-.12,11.66-.24,17.49-.36v-29.24c-5.51,0-11.02,0-16.53,0-.57-.06-2.67-.33-4.34-2.11Z"/>
        </g>
        <g>
          <path class="cls-2" d="m1021.14,1038.28c0-19.26,12.2-30.71,27.86-30.71,8.35,0,14.08,3.67,17.78,7.45l-5.58,6.73c-2.95-2.88-6.41-5.11-11.88-5.11-10.44,0-17.46,8.1-17.46,21.31s6.23,21.56,18.04,21.56c3.28,0,6.52-.94,8.39-2.59v-12.71h-11.09v-8.57h20.45v25.96c-3.92,3.96-10.73,6.98-18.79,6.98-15.88,0-27.72-10.84-27.72-30.31Z"/>
          <path class="cls-2" d="m1082.55,1007.57h35.42v8.78h-24.98v15.08h21.17v8.78h-21.17v17.42h25.88v8.78h-36.32v-58.86Z"/>
          <path class="cls-2" d="m1125.23,1058.89l6.08-7.16c4.21,4.01,9.86,6.71,15.33,6.71,6.62,0,10.26-3.01,10.26-7.6,0-4.84-3.8-6.39-9.14-8.66l-8.05-3.49c-5.8-2.41-11.9-7-11.9-15.61,0-9.38,8.28-16.6,19.76-16.6,6.88,0,13.54,2.84,18.14,7.51l-5.36,6.62c-3.74-3.19-7.74-5.06-12.78-5.06-5.58,0-9.21,2.61-9.21,6.91,0,4.63,4.48,6.34,9.36,8.33l7.94,3.33c7,2.92,11.9,7.34,11.9,15.88,0,9.54-7.92,17.5-21.13,17.5-7.96,0-15.62-3.13-21.2-8.62Z"/>
          <path class="cls-2" d="m1195.65,1016.36h-16.99v-8.78h44.42v8.78h-16.99v50.07h-10.44v-50.07Z"/>
          <path class="cls-2" d="m1229.49,1007.57h10.44v58.86h-10.44v-58.86Z"/>
          <path class="cls-2" d="m1256.92,1037.85c0-19.04,10.62-30.27,25.96-30.27s25.96,11.29,25.96,30.27-10.62,30.74-25.96,30.74-25.96-11.7-25.96-30.74Zm41.18,0c0-13.21-5.98-21.2-15.23-21.2s-15.23,7.99-15.23,21.2,5.98,21.67,15.23,21.67,15.23-8.46,15.23-21.67Zm-21.06-37.51l14.08-12.1,5.65,6.8-15.12,10.51-4.61-5.22Z"/>
          <path class="cls-2" d="m1321.79,1007.57h10.73l18.29,33.08,6.08,12.56h.36c-.5-6.08-1.33-13.54-1.33-20.09v-25.56h9.94v58.86h-10.73l-18.29-33.14-6.08-12.51h-.36c.5,6.23,1.33,13.32,1.33,19.87v25.77h-9.94v-58.86Z"/>
          <path class="cls-2" d="m1414.85,1006.36h15.7c18.04,0,28.69,9.72,28.69,29.19s-10.66,29.66-28.15,29.66h-16.24v-58.86Zm15.01,50.4c11.84,0,18.65-6.73,18.65-21.2s-6.8-20.74-18.65-20.74h-4.57v41.94h4.57Z"/>
          <path class="cls-2" d="m1466.6,1006.36h35.42v8.78h-24.98v15.08h21.17v8.78h-21.17v17.42h25.88v8.78h-36.32v-58.86Z"/>
          <path class="cls-2" d="m1541.89,1006.36h35.42v8.78h-24.98v15.08h21.17v8.78h-21.17v17.42h25.88v8.78h-36.32v-58.86Z"/>
          <path class="cls-2" d="m1581.32,1007.57h11.05l8.28,29.59c1.91,6.68,3.2,12.46,5.18,19.15h.36c1.98-6.7,3.33-12.47,5.18-19.15l8.17-29.59h10.66l-18.22,58.86h-12.38l-18.29-58.86Z"/>
          <path class="cls-2" d="m1641.29,1007.57h35.42v8.78h-24.98v15.08h21.17v8.78h-21.17v17.42h25.88v8.78h-36.32v-58.86Z"/>
          <path class="cls-2" d="m1689.5,1007.57h10.73l18.29,33.08,6.08,12.56h.36c-.5-6.08-1.33-13.54-1.33-20.09v-25.56h9.94v58.86h-10.73l-18.29-33.14-6.08-12.51h-.36c.5,6.23,1.33,13.32,1.33,19.87v25.77h-9.94v-58.86Z"/>
          <path class="cls-2" d="m1755.91,1016.36h-16.99v-8.78h44.42v8.78h-16.99v50.07h-10.44v-50.07Z"/>
          <path class="cls-2" d="m1791.96,1036.77c0-19.04,10.62-30.27,25.96-30.27s25.96,11.29,25.96,30.27-10.62,30.74-25.96,30.74-25.96-11.7-25.96-30.74Zm41.18,0c0-13.21-5.98-21.2-15.23-21.2s-15.23,7.99-15.23,21.2,5.98,21.67,15.23,21.67,15.23-8.46,15.23-21.67Z"/>
          <path class="cls-2" d="m1852.03,1058.89l6.08-7.16c4.21,4.01,9.86,6.71,15.33,6.71,6.62,0,10.26-3.01,10.26-7.6,0-4.84-3.8-6.39-9.14-8.66l-8.05-3.49c-5.8-2.41-11.9-7-11.9-15.61,0-9.38,8.28-16.6,19.76-16.6,6.88,0,13.54,2.84,18.14,7.51l-5.36,6.62c-3.74-3.19-7.74-5.06-12.78-5.06-5.58,0-9.21,2.61-9.21,6.91,0,4.63,4.48,6.34,9.36,8.33l7.94,3.33c7,2.92,11.9,7.34,11.9,15.88,0,9.54-7.92,17.5-21.13,17.5-7.96,0-15.62-3.13-21.2-8.62Z"/>
          <path class="cls-2" d="m1022.35,1099.49h15.7c18.04,0,28.69,9.72,28.69,29.19s-10.66,29.66-28.15,29.66h-16.24v-58.86Zm15.01,50.4c11.84,0,18.65-6.73,18.65-21.2s-6.8-20.73-18.65-20.73h-4.57v41.94h4.57Z"/>
          <path class="cls-2" d="m1080.9,1099.49h35.42v8.78h-24.98v15.08h21.17v8.78h-21.17v17.42h25.88v8.78h-36.32v-58.86Z"/>
          <path class="cls-2" d="m1123.46,1099.49h18.54c13.07,0,22.75,4.54,22.75,18.14s-9.72,19.08-22.39,19.08h-8.46v21.63h-10.44v-58.86Zm18.04,28.87c8.78,0,12.96-3.49,12.96-10.73s-4.57-9.79-13.32-9.79h-7.24v20.52h7.6Z"/>
          <path class="cls-2" d="m1178.03,1128.69c0-19.04,10.62-30.27,25.96-30.27s25.96,11.29,25.96,30.27-10.62,30.74-25.96,30.74-25.96-11.7-25.96-30.74Zm41.18,0c0-13.21-5.98-21.2-15.23-21.2s-15.23,7.99-15.23,21.2,5.98,21.67,15.23,21.67,15.23-8.46,15.23-21.67Z"/>
          <path class="cls-2" d="m1245.74,1099.49h19.84c12.24,0,21.67,4.32,21.67,17.46s-9.43,18.4-21.67,18.4h-9.4v23h-10.44v-58.86Zm18.76,27.5c8.06,0,12.46-3.35,12.46-10.04s-4.39-9.11-12.46-9.11h-8.32v19.15h8.32Zm-.88,5.56l7.56-6.23,18.38,32.02h-11.74l-14.2-25.79Z"/>
          <path class="cls-2" d="m1308.24,1108.28h-16.99v-8.78h44.42v8.78h-16.99v50.07h-10.44v-50.07Z"/>
          <path class="cls-2" d="m1345.43,1099.49h10.44v58.86h-10.44v-58.86Z"/>
          <path class="cls-2" d="m1368.71,1099.49h11.05l8.28,29.59c1.91,6.68,3.2,12.46,5.18,19.15h.36c1.98-6.7,3.33-12.47,5.18-19.15l8.17-29.59h10.66l-18.22,58.86h-12.38l-18.29-58.86Z"/>
          <path class="cls-2" d="m1425.29,1128.69c0-19.04,10.62-30.27,25.96-30.27s25.96,11.29,25.96,30.27-10.62,30.74-25.96,30.74-25.96-11.7-25.96-30.74Zm41.18,0c0-13.21-5.98-21.2-15.23-21.2s-15.23,7.99-15.23,21.2,5.98,21.67,15.23,21.67,15.23-8.46,15.23-21.67Z"/>
          <path class="cls-2" d="m1486.69,1150.81l6.08-7.16c4.21,4.01,9.86,6.71,15.33,6.71,6.62,0,10.26-3.01,10.26-7.59,0-4.84-3.8-6.39-9.14-8.66l-8.05-3.49c-5.8-2.41-11.9-7-11.9-15.6,0-9.38,8.28-16.6,19.76-16.6,6.88,0,13.54,2.84,18.14,7.51l-5.36,6.62c-3.74-3.19-7.74-5.06-12.78-5.06-5.58,0-9.21,2.61-9.21,6.91,0,4.63,4.48,6.34,9.36,8.33l7.94,3.33c7,2.92,11.9,7.34,11.9,15.88,0,9.54-7.92,17.5-21.13,17.5-7.96,0-15.62-3.13-21.2-8.62Z"/>
        </g>
      </g>
    </g>
  </g>
</svg>