<?xml version="1.0" encoding="UTF-8"?>
<svg id="Capa_13" data-name="Capa 13" xmlns="http://www.w3.org/2000/svg" viewBox="0 0 2160 1053.96">
  <defs>
    <style>
      .cls-1 {
        fill: #084482;
      }

      .cls-2 {
        fill: #5b5b5b;
      }
    </style>
  </defs>
  <g>
    <path class="cls-1" d="m279.46,292.82v60.54h98.06c-9.37,19.95-21.7,34.61-36.99,43.97-15.28,9.36-34.07,14.04-56.34,14.04-34.26,0-63.06-11.36-86.41-34.07-23.35-22.71-35.03-50.41-35.03-83.1s11.25-58.47,33.75-80.57c22.5-22.1,50.42-33.15,83.75-33.15,9.22,0,23.1.05,39.37,5.88,25.63,9.19,41.26,26.93,48.69,36.93h72.22c-6.1-15.89-26.95-63.89-77.97-89.54-33.08-16.63-64.09-16.34-82.64-16.34-56.32,0-102.05,19.72-137.19,59.16-29.62,33.15-44.43,72.13-44.43,116.94,0,32.69,8.02,63.15,24.05,91.39,16.03,28.24,37.83,49.99,65.37,65.26,27.54,15.27,58.89,22.9,94.03,22.9,32.84,0,61.46-6.98,85.86-20.95,24.4-13.96,44.27-34.22,59.62-60.77,15.34-26.55,23.02-54.63,23.02-84.25l-.46-14.27h-170.34Z"/>
    <path class="cls-1" d="m601.82,224.7c-37.14,0-68.02,12.62-92.65,37.87-24.63,25.25-36.95,56.97-36.95,95.18s12.35,68.33,37.06,93.11c24.71,24.78,56.7,37.18,95.99,37.18,25.32,0,47.19-4.49,65.6-13.47,18.42-8.98,34.22-22.83,47.42-41.55l-52.94-24.86c-16.88,16.42-37.06,24.63-60.54,24.63-19.64,0-35.79-5.26-48.46-15.77-12.66-10.51-20.45-24.67-23.36-42.47h201.88l.23-11.97c0-41.43-12.36-74.77-37.06-100.02-24.71-25.24-56.78-37.87-96.22-37.87Zm-66.06,100.36c7.07-15.5,14.76-26.32,23.06-32.46,13.22-9.82,28.59-14.73,46.11-14.73,16.14,0,30.32,4.37,42.54,13.12,12.22,8.75,20.41,20.11,24.56,34.07h-136.27Z"/>
    <path class="cls-1" d="m946.1,277.63l-35.13-17.57c-15.23-7.49-24.77-13.41-28.63-17.74-3.86-4.33-5.8-9.08-5.8-14.23,0-6.79,3.04-12.47,9.14-17.04,6.09-4.57,14.52-6.85,25.3-6.85,19.68,0,41.57,11.95,65.7,35.84l59.38-59.38c-15.23-20.38-33.79-36.01-55.69-46.91-21.9-10.89-45.27-16.34-70.09-16.34-36.31,0-66.12,10.72-89.42,32.15-23.31,21.43-34.96,47.26-34.96,77.47,0,46.85,30.92,85.85,92.76,117l32.32,16.16c27.87,14.05,41.81,28.46,41.81,43.22,0,7.97-3.86,14.99-11.59,21.08-7.73,6.09-17.92,9.14-30.57,9.14-11.71,0-25.12-4.04-40.23-12.12-15.11-8.08-28.28-18.68-39.53-31.8l-59.03,64.3c33.26,43.57,77.76,65.35,133.51,65.35,41.92,0,75.36-11.36,100.31-34.08,24.95-22.72,37.42-51.06,37.42-85.03,0-25.53-6.91-47.78-20.73-66.76-13.82-18.97-39.24-37.59-76.24-55.86Z"/>
    <path class="cls-1" d="m1247.76,215.67c-15.04,0-29.16,2.84-42.36,8.52-13.2,5.68-25.48,14.2-36.83,25.55v-27.62h-62.38v342.06h62.38v-118.09c12.27,11.66,24.63,20.07,37.06,25.21,12.43,5.14,25.86,7.71,40.28,7.71,32.38,0,60.38-12.55,84.02-37.64,23.63-25.09,35.45-56.28,35.45-93.57s-11.43-70.36-34.3-95.07c-22.87-24.71-50.64-37.06-83.33-37.06Zm35.33,184.84c-13.12,13.97-29.27,20.95-48.46,20.95s-36.22-6.87-49.26-20.6c-13.05-13.73-19.57-31.73-19.57-53.98s6.52-39.44,19.57-52.94c13.04-13.5,29.46-20.26,49.26-20.26s35.91,6.87,48.8,20.6c12.89,13.74,19.34,31.35,19.34,52.83s-6.56,39.44-19.68,53.4Z"/>
    <path class="cls-1" d="m1621.39,239.2c-20.8-11.82-43.01-17.72-66.64-17.72-32.69,0-61.62,11.36-86.78,34.07-28.7,26.09-43.05,58.7-43.05,97.83,0,36.52,12.7,67.56,38.1,93.11,25.4,25.55,56.05,38.33,91.96,38.33,24.4,0,46.73-5.79,66.99-17.38,20.26-11.59,36.26-27.66,47.99-48.22,11.74-20.56,17.61-42.66,17.61-66.29s-5.83-45.35-17.49-65.6c-11.66-20.26-27.89-36.29-48.69-48.11Zm-16.72,166.66c-13.07,13.66-29.44,20.49-49.11,20.49s-35.93-6.75-48.77-20.26c-12.84-13.5-19.25-31.15-19.25-52.94s6.49-38.56,19.48-52.14c12.99-13.58,29.24-20.37,48.77-20.37s36.39,6.71,49.23,20.14c12.83,13.43,19.25,30.88,19.25,52.37s-6.54,39.06-19.6,52.71Z"/>
    <path class="cls-1" d="m1836.89,234.37c-9.67,6.45-17.42,15.88-23.25,28.31v-31.54h-53.86v250.45h62.38v-101.28c.05-11.81.11-23.63.16-35.44,1.03-6.49,3.88-18.46,12.81-30.29,3.32-4.39,12.71-16.49,30.09-22.4,11.78-4.01,22.1-3.42,27.75-2.67.41-19.45.83-38.9,1.24-58.35-8.9-4.29-17.42-6.45-25.55-6.45-11.51,0-22.1,3.22-31.77,9.67Z"/>
    <path class="cls-1" d="m2033.1,415.75c-2.35-2.5-3.08-5.27-3.33-6.52.21-44.34.42-88.68.64-133.02h37.29v-54.09h-37.29v-92.31h-62.84c.19,34.97.19,70.23,0,105.77-.29,55.07-2.66,95.5-2.29,167.38.06,10.95.15,19.98.22,25.96-.03.72-.06,1.87.03,3.26,1.37,22.46,26.79,36.3,28.34,37.11,4.28,2.26,11.58,5.4,21.62,6.44,8.09.77,16.18,1.53,24.26,2.3,11.45-.24,22.91-.48,34.36-.71v-57.43c-10.82,0-21.65,0-32.47,0-1.12-.11-5.25-.65-8.53-4.14Z"/>
  </g>
  <g>
    <path class="cls-2" d="m78.67,693.5c0-39.42,24.98-62.85,57.03-62.85,17.1,0,28.81,7.52,36.4,15.25l-11.42,13.78c-6.04-5.89-13.12-10.46-24.32-10.46-21.37,0-35.74,16.58-35.74,43.62s12.75,44.14,36.92,44.14c6.71,0,13.34-1.92,17.17-5.31v-26.01h-22.7v-17.54h41.85v53.13c-8.03,8.11-21.96,14.3-38.46,14.3-32.5,0-56.74-22.18-56.74-62.05Z"/>
    <path class="cls-2" d="m224.44,630.65h72.51v17.98h-51.14v30.87h43.33v17.98h-43.33v35.66h52.98v17.98h-74.35v-120.48Z"/>
    <path class="cls-2" d="m326.34,735.69l12.45-14.66c8.62,8.22,20.19,13.74,31.39,13.74,13.56,0,21-6.15,21-15.55,0-9.91-7.77-13.08-18.72-17.72l-16.47-7.15c-11.86-4.94-24.35-14.33-24.35-31.94,0-19.2,16.95-33.97,40.45-33.97,14.07,0,27.71,5.82,37.14,15.36l-10.98,13.56c-7.66-6.52-15.84-10.35-26.16-10.35-11.42,0-18.86,5.34-18.86,14.15,0,9.47,9.17,12.97,19.16,17.06l16.25,6.82c14.33,5.97,24.35,15.03,24.35,32.5,0,19.53-16.21,35.81-43.25,35.81-16.29,0-31.98-6.41-43.4-17.65Z"/>
    <path class="cls-2" d="m470.49,648.63h-34.78v-17.98h90.93v17.98h-34.78v102.5h-21.37v-102.5Z"/>
    <path class="cls-2" d="m555.3,630.65h21.37v120.48h-21.37v-120.48Z"/>
    <path class="cls-2" d="m617.86,692.62c0-38.98,21.74-61.97,53.13-61.97s53.13,23.1,53.13,61.97-21.74,62.93-53.13,62.93-53.13-23.95-53.13-62.93Zm84.3,0c0-27.04-12.23-43.4-31.17-43.4s-31.17,16.36-31.17,43.4,12.23,44.36,31.17,44.36,31.17-17.32,31.17-44.36Zm-43.11-76.78l28.81-24.76,11.57,13.93-30.95,21.52-9.43-10.68Z"/>
    <path class="cls-2" d="m771.84,630.65h21.96l37.43,67.72,12.45,25.72h.74c-1.03-12.45-2.73-27.71-2.73-41.12v-52.32h20.34v120.48h-21.96l-37.43-67.83-12.45-25.61h-.74c1.03,12.75,2.73,27.26,2.73,40.68v52.76h-20.34v-120.48Z"/>
    <path class="cls-2" d="m972.14,628.16h32.13c36.92,0,58.73,19.89,58.73,59.76s-21.81,60.72-57.62,60.72h-33.23v-120.48Zm30.73,103.16c24.24,0,38.17-13.78,38.17-43.4s-13.93-42.44-38.17-42.44h-9.36v85.84h9.36Z"/>
    <path class="cls-2" d="m1101.47,628.16h72.51v17.98h-51.14v30.87h43.33v17.98h-43.33v35.66h52.98v17.98h-74.35v-120.48Z"/>
    <path class="cls-2" d="m1274.51,628.16h72.51v17.98h-51.14v30.87h43.33v17.98h-43.33v35.66h52.98v17.98h-74.35v-120.48Z"/>
    <path class="cls-2" d="m1371.27,630.65h22.62l16.95,60.57c3.91,13.67,6.56,25.5,10.61,39.2h.74c4.05-13.71,6.82-25.53,10.61-39.2l16.73-60.57h21.81l-37.29,120.48h-25.35l-37.43-120.48Z"/>
    <path class="cls-2" d="m1507.41,630.65h72.51v17.98h-51.14v30.87h43.33v17.98h-43.33v35.66h52.98v17.98h-74.35v-120.48Z"/>
    <path class="cls-2" d="m1626.14,630.65h21.96l37.43,67.72,12.45,25.72h.74c-1.03-12.45-2.73-27.71-2.73-41.12v-52.32h20.34v120.48h-21.96l-37.43-67.83-12.45-25.61h-.74c1.03,12.75,2.73,27.26,2.73,40.68v52.76h-20.34v-120.48Z"/>
    <path class="cls-2" d="m1784.16,648.63h-34.78v-17.98h90.93v17.98h-34.78v102.5h-21.37v-102.5Z"/>
    <path class="cls-2" d="m1870.69,690.41c0-38.98,21.74-61.97,53.13-61.97s53.13,23.1,53.13,61.97-21.74,62.93-53.13,62.93-53.13-23.95-53.13-62.93Zm84.3,0c0-27.04-12.23-43.4-31.17-43.4s-31.17,16.36-31.17,43.4,12.23,44.36,31.17,44.36,31.17-17.32,31.17-44.36Z"/>
    <path class="cls-2" d="m2007.04,735.69l12.45-14.66c8.62,8.22,20.19,13.74,31.39,13.74,13.56,0,21-6.15,21-15.55,0-9.91-7.77-13.08-18.72-17.72l-16.47-7.15c-11.86-4.94-24.35-14.33-24.35-31.94,0-19.2,16.95-33.97,40.45-33.97,14.07,0,27.71,5.82,37.14,15.36l-10.98,13.56c-7.66-6.52-15.84-10.35-26.16-10.35-11.42,0-18.86,5.34-18.86,14.15,0,9.47,9.17,12.97,19.16,17.06l16.25,6.82c14.33,5.97,24.35,15.03,24.35,32.5,0,19.53-16.21,35.81-43.25,35.81-16.29,0-31.98-6.41-43.4-17.65Z"/>
    <path class="cls-2" d="m87.53,813.86h32.13c36.92,0,58.73,19.9,58.73,59.76s-21.81,60.72-57.62,60.72h-33.23v-120.48Zm30.73,103.16c24.24,0,38.17-13.78,38.17-43.4s-13.93-42.44-38.17-42.44h-9.36v85.84h9.36Z"/>
    <path class="cls-2" d="m216.76,813.86h72.51v17.98h-51.14v30.88h43.33v17.98h-43.33v35.66h52.98v17.98h-74.35v-120.48Z"/>
    <path class="cls-2" d="m322.72,813.86h37.95c26.75,0,46.57,9.29,46.57,37.14s-19.9,39.05-45.83,39.05h-17.32v44.29h-21.37v-120.48Zm36.92,59.1c17.98,0,26.53-7.15,26.53-21.96s-9.36-20.04-27.26-20.04h-14.81v42h15.55Z"/>
    <path class="cls-2" d="m443.77,873.62c0-38.98,21.74-61.97,53.13-61.97s53.13,23.1,53.13,61.97-21.74,62.93-53.13,62.93-53.13-23.95-53.13-62.93Zm84.3,0c0-27.04-12.23-43.4-31.17-43.4s-31.17,16.36-31.17,43.4,12.23,44.36,31.17,44.36,31.17-17.32,31.17-44.36Z"/>
    <path class="cls-2" d="m594.39,813.86h40.6c25.05,0,44.36,8.84,44.36,35.74s-19.31,37.65-44.36,37.65h-19.23v47.09h-21.37v-120.48Zm38.39,56.3c16.51,0,25.49-6.85,25.49-20.56s-8.99-18.64-25.49-18.64h-17.02v39.2h17.02Zm-1.81,11.38l15.47-12.75,37.62,65.54h-24.02l-29.07-52.8Z"/>
    <path class="cls-2" d="m734.21,831.84h-34.78v-17.98h90.93v17.98h-34.78v102.5h-21.37v-102.5Z"/>
    <path class="cls-2" d="m819.82,813.86h21.37v120.48h-21.37v-120.48Z"/>
    <path class="cls-2" d="m875.5,813.86h22.62l16.95,60.57c3.91,13.67,6.56,25.49,10.61,39.2h.74c4.05-13.71,6.82-25.53,10.61-39.2l16.73-60.57h21.81l-37.29,120.48h-25.35l-37.43-120.48Z"/>
    <path class="cls-2" d="m1005.25,873.62c0-38.98,21.74-61.97,53.13-61.97s53.13,23.1,53.13,61.97-21.74,62.93-53.13,62.93-53.13-23.95-53.13-62.93Zm84.3,0c0-27.04-12.23-43.4-31.17-43.4s-31.17,16.36-31.17,43.4,12.23,44.36,31.17,44.36,31.17-17.32,31.17-44.36Z"/>
    <path class="cls-2" d="m1142.29,918.9l12.45-14.66c8.62,8.22,20.19,13.74,31.39,13.74,13.56,0,21-6.15,21-15.55,0-9.91-7.77-13.08-18.72-17.72l-16.47-7.15c-11.86-4.94-24.35-14.33-24.35-31.94,0-19.2,16.95-33.97,40.45-33.97,14.07,0,27.71,5.82,37.14,15.36l-10.98,13.56c-7.66-6.52-15.84-10.35-26.16-10.35-11.42,0-18.86,5.34-18.86,14.15,0,9.47,9.17,12.97,19.16,17.06l16.25,6.81c14.33,5.97,24.35,15.03,24.35,32.5,0,19.53-16.21,35.81-43.25,35.81-16.29,0-31.98-6.41-43.4-17.65Z"/>
  </g>
</svg>